<?xml version="1.0" encoding="UTF-8" standalone="no"?>
<svg
   xmlns:dc="http://purl.org/dc/elements/1.1/"
   xmlns:cc="http://creativecommons.org/ns#"
   xmlns:rdf="http://www.w3.org/1999/02/22-rdf-syntax-ns#"
   xmlns:svg="http://www.w3.org/2000/svg"
   xmlns="http://www.w3.org/2000/svg"
   xmlns:xlink="http://www.w3.org/1999/xlink"
   xmlns:sodipodi="http://sodipodi.sourceforge.net/DTD/sodipodi-0.dtd"
   xmlns:inkscape="http://www.inkscape.org/namespaces/inkscape"
   width="94.023354mm"
   height="39.389992mm"
   viewBox="0 0 94.023354 39.389991"
   version="1.1"
   id="svg8"
   inkscape:version="1.0.1 (3bc2e813f5, 2020-09-07)"
   sodipodi:docname="buttonclickerlogo.svg"
   inkscape:export-filename="C:\Users\Me\Desktop\buttonclickerlogo.png"
   inkscape:export-xdpi="200"
   inkscape:export-ydpi="200">
  <defs
     id="defs2" />
  <sodipodi:namedview
     id="base"
     pagecolor="#ffffff"
     bordercolor="#666666"
     borderopacity="1.0"
     inkscape:pageopacity="0.0"
     inkscape:pageshadow="2"
     inkscape:zoom="1.4"
     inkscape:cx="214.04005"
     inkscape:cy="-17.698618"
     inkscape:document-units="mm"
     inkscape:current-layer="layer1"
     inkscape:document-rotation="0"
     showgrid="false"
     inkscape:window-width="1366"
     inkscape:window-height="715"
     inkscape:window-x="-8"
     inkscape:window-y="-8"
     inkscape:window-maximized="1"
     fit-margin-top="0"
     fit-margin-left="0"
     fit-margin-right="0"
     fit-margin-bottom="0"
     inkscape:snap-global="false" />
  <metadata
     id="metadata5">
    <rdf:RDF>
      <cc:Work
         rdf:about="">
        <dc:format>image/svg+xml</dc:format>
        <dc:type
           rdf:resource="http://purl.org/dc/dcmitype/StillImage" />
        <dc:title></dc:title>
      </cc:Work>
    </rdf:RDF>
  </metadata>
  <g
     inkscape:label="Layer 1"
     inkscape:groupmode="layer"
     id="layer1"
     style="display:inline"
     transform="translate(-77.03284,-36.794214)">
    <text
       xml:space="preserve"
       style="font-style:normal;font-weight:normal;font-size:17.6389px;line-height:1.25;font-family:sans-serif;fill:#162d40;fill-opacity:1;stroke:none;stroke-width:0.264583"
       id="text908"
       x="0.8018086"
       y="-0.0094967727"
       transform="translate(1.0690781,0.13363476)"><textPath
         xlink:href="#path849"
         id="textPath906"><tspan
           id="tspan904"
           style="font-style:normal;font-variant:normal;font-weight:normal;font-stretch:normal;font-size:17.6389px;font-family:Big_Bottom_Cartoon;-inkscape-font-specification:'Big_Bottom_Cartoon, Normal';font-variant-ligatures:normal;font-variant-caps:normal;font-variant-numeric:normal;font-variant-east-asian:normal;fill:#162d40;fill-opacity:1;stroke-width:0.264583">Button</tspan></textPath></text>
    <text
       xml:space="preserve"
       style="font-style:normal;font-weight:normal;font-size:17.6389px;line-height:1.25;font-family:sans-serif;fill:#3f81b8;fill-opacity:1;stroke:none;stroke-width:0.264583"
       id="text835"
       transform="translate(0,-0.94494012)"><textPath
         xlink:href="#path849"
         id="textPath852"><tspan
           id="tspan833"
           style="font-style:normal;font-variant:normal;font-weight:normal;font-stretch:normal;font-size:17.6389px;font-family:Big_Bottom_Cartoon;-inkscape-font-specification:'Big_Bottom_Cartoon, Normal';font-variant-ligatures:normal;font-variant-caps:normal;font-variant-numeric:normal;font-variant-east-asian:normal;fill:#3f81b8;fill-opacity:1;stroke-width:0.264583">Button</tspan></textPath></text>
    <path
       style="fill:#ffcc00;fill-opacity:1;stroke:#e9842a;stroke-width:0.8;stroke-linejoin:round;stroke-miterlimit:4;stroke-dasharray:none;stroke-opacity:1"
       d="m 96.950893,66.334822 10.329497,-4.823946 -5.03783,-3.302543 5.10268,-1.700893 v -4.724701 l 10.39435,3.212798 4.53571,-4.913691 6.04762,5.669642 6.23661,-2.834822 4.7247,3.779763 10.58333,-3.590774 0.56697,4.157737 12.6622,-4.346724 -2.12276,6.934424 9.20981,0.672345 -9.55733,4.577229 7.76195,8.415704 -13.60715,-3.212799 -4.15773,5.480653 -6.80358,-6.236605 -6.04369,6.102971 -5.29559,-6.29196 -7.74851,6.236609 -9.07143,-5.669644 -3.68526,4.535713 -3.68528,-7.370533 z"
       id="path856"
       sodipodi:nodetypes="ccccccccccccccccccccccccccc" />
    <path
       style="fill:none;stroke:none;stroke-width:1.04369;stroke-linejoin:round"
       id="path849"
       d="m 87.208843,69.348496 c 1.60379,-1.413808 3.588755,-2.549133 5.529633,-3.682079 2.035508,-1.117394 2.140647,-1.211671 4.356509,-2.267 0.235351,-0.112087 0.48548,-0.20556 0.732416,-0.302391 1.057877,-0.414814 2.109394,-0.839527 3.181819,-1.232456 1.17913,-0.432025 2.36756,-0.850494 3.57132,-1.241851 1.33054,-0.43257 2.68628,-0.819487 4.02941,-1.22923 8.10501,-2.339018 16.54126,-3.944237 25.12805,-4.865367 1.64984,-0.176982 3.30935,-0.297989 4.96403,-0.446984 5.54762,-0.396551 11.16772,-0.558063 16.70822,-0.0024 0.60304,0.06047 1.20074,0.148169 1.80113,0.222253 0.46459,0.08092 0.92918,0.161835 1.39378,0.242752 0,0 2.37017,-1.247866 2.37017,-1.247866 v 0 c -0.50552,-0.06426 -1.01104,-0.128526 -1.51655,-0.192788 -0.64254,-0.05599 -1.28315,-0.126589 -1.92763,-0.167968 -5.82916,-0.374253 -11.70122,-0.05696 -17.50319,0.399557 -4.46207,0.428758 -5.81269,0.511309 -10.28462,1.136413 -6.67655,0.933271 -13.24611,2.2677 -19.62534,4.027236 -1.30818,0.385804 -2.62865,0.748641 -3.92455,1.157416 -5.6221,1.773422 -11.001738,4.020493 -15.90925,6.749666 -2.141648,1.218345 -4.303925,2.442019 -6.140909,3.926907 0,0 3.065552,-0.983743 3.065552,-0.983743 z" />
    <path
       style="fill:#fff100;fill-opacity:1;stroke:none;stroke-width:0.678401;stroke-linejoin:round;stroke-miterlimit:4;stroke-dasharray:none;stroke-opacity:1"
       d="m 100.61537,65.649382 8.80732,-4.091793 -4.04184,-2.397257 4.5953,-1.358173 v -3.772702 l 9.36078,2.565438 4.08469,-3.923612 5.44628,4.527243 5.61646,-2.263622 4.2549,3.018163 9.53097,-2.867254 0.51059,3.319978 11.48096,-2.977258 -0.9257,5.004864 7.6557,0.855159 -8.39696,3.522193 6.35462,6.573142 -12.25412,-2.565439 -2.79936,4.187346 -6.12706,-5.452436 -5.92416,5.680565 -5.13804,-6.020462 -7.07252,5.830416 -10.34277,-5.188703 -2.93251,3.981436 -2.19323,-5.961575 z"
       id="path860"
       sodipodi:nodetypes="ccccccccccccccccccccccccccc" />
    <path
       style="fill:#ffff00;fill-opacity:1;stroke:none;stroke-width:0.575642;stroke-linejoin:round;stroke-miterlimit:4;stroke-dasharray:none;stroke-opacity:1"
       d="m 103.93419,65.106113 7.50564,-3.380343 -3.21671,-1.810897 4.13577,-1.086539 v -3.018161 l 8.4247,2.05235 3.67623,-3.13889 4.90165,3.621795 5.05481,-1.810898 3.82941,2.414531 8.57787,-2.293804 0.45954,2.655983 11.32236,-2.034912 -0.50345,3.774025 5.90168,0.727738 -7.37684,2.603662 5.208,5.311967 -11.0287,-2.052351 -1.38549,3.406573 -6.31322,-4.250533 -5.24981,4.345028 -5.40976,-5.522112 -7.22517,5.306893 -9.05337,-5.228195 -3.27236,3.695417 -0.81163,-4.561373 z"
       id="path866"
       sodipodi:nodetypes="ccccccccccccccccccccccccccc" />
    <text
       xml:space="preserve"
       style="font-style:normal;font-weight:normal;font-size:10.5833px;line-height:1.25;font-family:sans-serif;fill:#34210e;fill-opacity:1;stroke:none;stroke-width:0.264583"
       x="111.03722"
       y="69.153442"
       id="text902"><tspan
         sodipodi:role="line"
         id="tspan900"
         x="111.03722"
         y="69.153442"
         style="font-style:normal;font-variant:normal;font-weight:normal;font-stretch:normal;font-size:10.5833px;font-family:Big_Bottom_Cartoon;-inkscape-font-specification:'Big_Bottom_Cartoon, Normal';font-variant-ligatures:normal;font-variant-caps:normal;font-variant-numeric:normal;font-variant-east-asian:normal;fill:#34210e;fill-opacity:1;stroke-width:0.264583">Clicker</tspan></text>
    <text
       xml:space="preserve"
       style="font-style:normal;font-weight:normal;font-size:10.5833px;line-height:1.25;font-family:sans-serif;fill:#a86b2d;fill-opacity:1;stroke:none;stroke-width:0.264583"
       x="110.09228"
       y="68.397491"
       id="text864"><tspan
         sodipodi:role="line"
         id="tspan862"
         x="110.09228"
         y="68.397491"
         style="font-style:normal;font-variant:normal;font-weight:normal;font-stretch:normal;font-size:10.5833px;font-family:Big_Bottom_Cartoon;-inkscape-font-specification:'Big_Bottom_Cartoon, Normal';font-variant-ligatures:normal;font-variant-caps:normal;font-variant-numeric:normal;font-variant-east-asian:normal;fill:#a86b2d;fill-opacity:1;stroke-width:0.264583">Clicker</tspan></text>
  </g>
  <g
     inkscape:groupmode="layer"
     id="layer2"
     inkscape:label="Layer 2"
     transform="translate(-77.03284,-36.794214)" />
</svg>
